<mxfile host="app.diagrams.net" agent="Mozilla/5.0 (Windows NT 10.0; Win64; x64) AppleWebKit/537.36 (KHTML, like Gecko) Chrome/133.0.0.0 Safari/537.36 Edg/133.0.0.0" version="26.0.11">
  <diagram name="Page-1" id="PJKbBEheC6ICWmZkn5pH">
    <mxGraphModel dx="2946" dy="1141" grid="1" gridSize="10" guides="1" tooltips="1" connect="1" arrows="1" fold="1" page="1" pageScale="1" pageWidth="850" pageHeight="1100" math="0" shadow="0">
      <root>
        <mxCell id="0" />
        <mxCell id="1" parent="0" />
        <mxCell id="meZ9FdcIyODocP2k3aQp-1" value="Preprocessing/Indexing" style="rounded=0;whiteSpace=wrap;html=1;fillColor=none;dashed=1;dashPattern=8 8;verticalAlign=top;" vertex="1" parent="1">
          <mxGeometry x="20" y="170" width="460" height="210" as="geometry" />
        </mxCell>
        <mxCell id="meZ9FdcIyODocP2k3aQp-2" style="edgeStyle=orthogonalEdgeStyle;rounded=0;orthogonalLoop=1;jettySize=auto;html=1;entryX=0;entryY=0.5;entryDx=0;entryDy=0;" edge="1" parent="1" source="meZ9FdcIyODocP2k3aQp-3" target="meZ9FdcIyODocP2k3aQp-9">
          <mxGeometry relative="1" as="geometry" />
        </mxCell>
        <mxCell id="meZ9FdcIyODocP2k3aQp-3" value="Chunker" style="rounded=0;whiteSpace=wrap;html=1;" vertex="1" parent="1">
          <mxGeometry x="190" y="300" width="120" height="60" as="geometry" />
        </mxCell>
        <mxCell id="meZ9FdcIyODocP2k3aQp-4" style="edgeStyle=orthogonalEdgeStyle;rounded=0;orthogonalLoop=1;jettySize=auto;html=1;entryX=0;entryY=0.5;entryDx=0;entryDy=0;" edge="1" parent="1" source="meZ9FdcIyODocP2k3aQp-5" target="meZ9FdcIyODocP2k3aQp-14">
          <mxGeometry relative="1" as="geometry" />
        </mxCell>
        <mxCell id="meZ9FdcIyODocP2k3aQp-5" value="Search Engine/&lt;div&gt;Vector database&lt;/div&gt;" style="rounded=0;whiteSpace=wrap;html=1;" vertex="1" parent="1">
          <mxGeometry x="510" y="300" width="120" height="60" as="geometry" />
        </mxCell>
        <mxCell id="meZ9FdcIyODocP2k3aQp-6" style="edgeStyle=orthogonalEdgeStyle;rounded=0;orthogonalLoop=1;jettySize=auto;html=1;entryX=0;entryY=0.5;entryDx=0;entryDy=0;" edge="1" parent="1" source="meZ9FdcIyODocP2k3aQp-7" target="meZ9FdcIyODocP2k3aQp-3">
          <mxGeometry relative="1" as="geometry" />
        </mxCell>
        <mxCell id="meZ9FdcIyODocP2k3aQp-7" value="Raw content" style="rounded=1;whiteSpace=wrap;html=1;" vertex="1" parent="1">
          <mxGeometry x="40" y="300" width="120" height="60" as="geometry" />
        </mxCell>
        <mxCell id="meZ9FdcIyODocP2k3aQp-8" style="edgeStyle=orthogonalEdgeStyle;rounded=0;orthogonalLoop=1;jettySize=auto;html=1;entryX=0;entryY=0.5;entryDx=0;entryDy=0;" edge="1" parent="1" source="meZ9FdcIyODocP2k3aQp-9" target="meZ9FdcIyODocP2k3aQp-5">
          <mxGeometry relative="1" as="geometry" />
        </mxCell>
        <mxCell id="meZ9FdcIyODocP2k3aQp-9" value="Chunks" style="rounded=1;whiteSpace=wrap;html=1;" vertex="1" parent="1">
          <mxGeometry x="340" y="300" width="120" height="60" as="geometry" />
        </mxCell>
        <mxCell id="meZ9FdcIyODocP2k3aQp-10" value="Storage" style="shape=cylinder3;whiteSpace=wrap;html=1;boundedLbl=1;backgroundOutline=1;size=15;" vertex="1" parent="1">
          <mxGeometry x="520" y="410" width="100" height="80" as="geometry" />
        </mxCell>
        <mxCell id="meZ9FdcIyODocP2k3aQp-11" style="edgeStyle=orthogonalEdgeStyle;rounded=0;orthogonalLoop=1;jettySize=auto;html=1;entryX=0.5;entryY=0;entryDx=0;entryDy=0;entryPerimeter=0;" edge="1" parent="1" source="meZ9FdcIyODocP2k3aQp-5" target="meZ9FdcIyODocP2k3aQp-10">
          <mxGeometry relative="1" as="geometry" />
        </mxCell>
        <mxCell id="meZ9FdcIyODocP2k3aQp-12" style="edgeStyle=orthogonalEdgeStyle;rounded=0;orthogonalLoop=1;jettySize=auto;html=1;entryX=0.5;entryY=0;entryDx=0;entryDy=0;" edge="1" parent="1" source="meZ9FdcIyODocP2k3aQp-13" target="meZ9FdcIyODocP2k3aQp-5">
          <mxGeometry relative="1" as="geometry" />
        </mxCell>
        <mxCell id="meZ9FdcIyODocP2k3aQp-13" value="User query" style="rounded=1;whiteSpace=wrap;html=1;" vertex="1" parent="1">
          <mxGeometry x="510" y="230" width="120" height="30" as="geometry" />
        </mxCell>
        <mxCell id="meZ9FdcIyODocP2k3aQp-14" value="Relevant chunks" style="rounded=1;whiteSpace=wrap;html=1;" vertex="1" parent="1">
          <mxGeometry x="670" y="300" width="120" height="60" as="geometry" />
        </mxCell>
        <mxCell id="meZ9FdcIyODocP2k3aQp-15" value="Retrieval" style="rounded=0;whiteSpace=wrap;html=1;fillColor=none;dashed=1;dashPattern=8 8;verticalAlign=top;" vertex="1" parent="1">
          <mxGeometry x="490" y="170" width="320" height="210" as="geometry" />
        </mxCell>
      </root>
    </mxGraphModel>
  </diagram>
</mxfile>
